<?xml version="1.0" encoding="UTF-8" standalone="no"?>
<!DOCTYPE svg PUBLIC "-//W3C//DTD SVG 1.1//EN" "http://www.w3.org/Graphics/SVG/1.1/DTD/svg11.dtd">
<svg width="100%" height="100%" viewBox="0 0 549 549" version="1.1" xmlns="http://www.w3.org/2000/svg" xmlns:xlink="http://www.w3.org/1999/xlink" xml:space="preserve" xmlns:serif="http://www.serif.com/" style="fill-rule:evenodd;clip-rule:evenodd;stroke-linecap:round;stroke-linejoin:round;stroke-miterlimit:1.5;">
    <g transform="matrix(1,0,0,1,-313.97,-43.1707)">
        <g transform="matrix(2.17628,0,0,2.17628,196.952,-362.36)">
            <rect x="53.77" y="186.341" width="252.219" height="252.219" style="fill:white;"/>
            <clipPath id="_clip1">
                <rect x="53.77" y="186.341" width="252.219" height="252.219"/>
            </clipPath>
            <g clip-path="url(#_clip1)">
                <g transform="matrix(0.653416,0,0,0.4595,-185.166,137.735)">
                    <g transform="matrix(1.58703,0,0,-1.06121,144.703,693.472)">
                        <path d="M137.5,796.767L390.833,543.433" style="fill:none;stroke:rgb(128,128,128);stroke-width:1.13px;"/>
                    </g>
                    <g transform="matrix(1.58011,0,0,-1.05659,145.653,955.015)">
                        <path d="M137.5,796.767L390.833,543.433" style="fill:none;stroke:rgb(128,128,128);stroke-width:1.14px;"/>
                    </g>
                    <g transform="matrix(1.57527,0,0,-1.05335,146.144,1216.61)">
                        <path d="M137.5,796.767L390.833,543.433" style="fill:none;stroke:rgb(128,128,128);stroke-width:1.14px;"/>
                    </g>
                    <g transform="matrix(1.58703,0,0,-1.06121,142.89,733.369)">
                        <path d="M137.5,796.767L390.833,543.433" style="fill:none;stroke:rgb(128,128,128);stroke-width:1.13px;"/>
                    </g>
                    <g transform="matrix(1.58564,0,0,-1.06029,143.08,997.859)">
                        <path d="M137.5,796.767L390.833,543.433" style="fill:none;stroke:rgb(128,128,128);stroke-width:1.14px;"/>
                    </g>
                    <g transform="matrix(1.59187,0,0,-1.06445,142.399,1265.58)">
                        <path d="M137.5,796.767L390.833,543.433" style="fill:none;stroke:rgb(128,128,128);stroke-width:1.13px;"/>
                    </g>
                    <g transform="matrix(1.58149,0,0,-1.05751,144.734,698.216)">
                        <path d="M137.5,796.767L390.833,543.433" style="fill:none;stroke:rgb(128,128,128);stroke-width:1.14px;"/>
                    </g>
                    <g transform="matrix(1.58841,0,0,-1.06214,143.783,967.127)">
                        <path d="M137.5,796.767L390.833,543.433" style="fill:none;stroke:rgb(128,128,128);stroke-width:1.13px;"/>
                    </g>
                    <g transform="matrix(1.58357,0,0,-1.0589,145.325,1229.42)">
                        <path d="M137.5,796.767L390.833,543.433" style="fill:none;stroke:rgb(128,128,128);stroke-width:1.14px;"/>
                    </g>
                    <g transform="matrix(1.58426,0,0,-1.05936,143.592,740.289)">
                        <path d="M137.5,796.767L390.833,543.433" style="fill:none;stroke:rgb(128,128,128);stroke-width:1.14px;"/>
                    </g>
                    <g transform="matrix(1.58149,0,0,-1.05751,145.374,1004.98)">
                        <path d="M137.5,796.767L390.833,543.433" style="fill:none;stroke:rgb(128,128,128);stroke-width:1.14px;"/>
                    </g>
                    <g transform="matrix(1.58378,0,0,-1.05904,144.359,1270.02)">
                        <path d="M137.5,796.767L390.833,543.433" style="fill:none;stroke:rgb(128,128,128);stroke-width:1.14px;"/>
                    </g>
                    <g transform="matrix(1.58426,0,0,-1.05936,144.089,707.691)">
                        <path d="M137.5,796.767L390.833,543.433" style="fill:none;stroke:rgb(128,128,128);stroke-width:1.14px;"/>
                    </g>
                    <g transform="matrix(1.58564,0,0,-1.06029,143.899,973.655)">
                        <path d="M137.5,796.767L390.833,543.433" style="fill:none;stroke:rgb(128,128,128);stroke-width:1.14px;"/>
                    </g>
                    <g transform="matrix(1.58759,0,0,-1.06159,142.754,1238.4)">
                        <path d="M137.5,796.767L390.833,543.433" style="fill:none;stroke:rgb(128,128,128);stroke-width:1.13px;"/>
                    </g>
                    <g transform="matrix(1.57873,0,0,-1.05566,145.139,746.045)">
                        <path d="M137.5,796.767L390.833,543.433" style="fill:none;stroke:rgb(128,128,128);stroke-width:1.14px;"/>
                    </g>
                    <g transform="matrix(1.59885,0,0,-1.06912,142.021,1021.76)">
                        <path d="M137.5,796.767L390.833,543.433" style="fill:none;stroke:rgb(128,128,128);stroke-width:1.13px;"/>
                    </g>
                    <g transform="matrix(1.56952,0,0,-1.04951,145.353,1269.96)">
                        <path d="M137.5,796.767L390.833,543.433" style="fill:none;stroke:rgb(128,128,128);stroke-width:1.15px;"/>
                    </g>
                    <g transform="matrix(1.58979,0,0,-1.06306,141.914,684.799)">
                        <path d="M137.5,796.767L390.833,543.433" style="fill:none;stroke:rgb(128,128,128);stroke-width:1.13px;"/>
                    </g>
                    <g transform="matrix(1.58426,0,0,-1.05936,145.128,948.718)">
                        <path d="M137.5,796.767L390.833,543.433" style="fill:none;stroke:rgb(128,128,128);stroke-width:1.14px;"/>
                    </g>
                    <g transform="matrix(1.58249,0,0,-1.05818,144.67,1211.6)">
                        <path d="M137.5,796.767L390.833,543.433" style="fill:none;stroke:rgb(128,128,128);stroke-width:1.14px;"/>
                    </g>
                    <g transform="matrix(1.58149,0,0,-1.05751,145.097,722.851)">
                        <path d="M137.5,796.767L390.833,543.433" style="fill:none;stroke:rgb(128,128,128);stroke-width:1.14px;"/>
                    </g>
                    <g transform="matrix(1.58575,0,0,-1.06036,144.862,990.578)">
                        <path d="M137.5,796.767L390.833,543.433" style="fill:none;stroke:rgb(128,128,128);stroke-width:1.14px;"/>
                    </g>
                    <g transform="matrix(1.5926,0,0,-1.06494,143.919,1258.52)">
                        <path d="M137.5,796.767L390.833,543.433" style="fill:none;stroke:rgb(128,128,128);stroke-width:1.13px;"/>
                    </g>
                    <g transform="matrix(1.58149,0,0,-1.05751,145.28,938.354)">
                        <path d="M137.5,796.767L390.833,543.433" style="fill:none;stroke:rgb(128,128,128);stroke-width:1.14px;"/>
                    </g>
                    <g transform="matrix(1.58036,0,0,-1.05676,145.435,1202.74)">
                        <path d="M137.5,796.767L390.833,543.433" style="fill:none;stroke:rgb(128,128,128);stroke-width:1.14px;"/>
                    </g>
                    <g transform="matrix(1.58564,0,0,-1.06029,142.896,715.937)">
                        <path d="M137.5,796.767L390.833,543.433" style="fill:none;stroke:rgb(128,128,128);stroke-width:1.14px;"/>
                    </g>
                    <g transform="matrix(1.58564,0,0,-1.06029,143.247,981.398)">
                        <path d="M137.5,796.767L390.833,543.433" style="fill:none;stroke:rgb(128,128,128);stroke-width:1.14px;"/>
                    </g>
                    <g transform="matrix(1.61676,0,0,-1.0811,137.916,1261.57)">
                        <path d="M137.5,796.767L390.833,543.433" style="fill:none;stroke:rgb(128,128,128);stroke-width:1.11px;"/>
                    </g>
                    <g transform="matrix(1.58119,0,0,-1.05731,145.533,773.033)">
                        <path d="M137.5,796.767L390.833,543.433" style="fill:none;stroke:rgb(128,128,128);stroke-width:1.14px;"/>
                    </g>
                    <g transform="matrix(1.5805,0,0,-1.05685,144.402,1037.07)">
                        <path d="M137.5,796.767L390.833,543.433" style="fill:none;stroke:rgb(128,128,128);stroke-width:1.14px;"/>
                    </g>
                    <g transform="matrix(1.57974,0,0,-1.05634,144.725,853.8)">
                        <path d="M137.5,796.767L390.833,543.433" style="fill:none;stroke:rgb(128,128,128);stroke-width:1.14px;"/>
                    </g>
                    <g transform="matrix(1.5749,0,0,-1.0531,145.741,1116.68)">
                        <path d="M137.5,796.767L390.833,543.433" style="fill:none;stroke:rgb(128,128,128);stroke-width:1.14px;"/>
                    </g>
                    <g transform="matrix(1.58124,0,0,-1.05735,144.765,813.657)">
                        <path d="M137.5,796.767L390.833,543.433" style="fill:none;stroke:rgb(128,128,128);stroke-width:1.14px;"/>
                    </g>
                    <g transform="matrix(1.57709,0,0,-1.05457,146.036,1077.14)">
                        <path d="M137.5,796.767L390.833,543.433" style="fill:none;stroke:rgb(128,128,128);stroke-width:1.14px;"/>
                    </g>
                    <g transform="matrix(1.58954,0,0,-1.0629,141.214,898.684)">
                        <path d="M137.5,796.767L390.833,543.433" style="fill:none;stroke:rgb(128,128,128);stroke-width:1.13px;"/>
                    </g>
                    <g transform="matrix(1.68971,0,0,-1.12987,124.288,1215.17)">
                        <path d="M137.5,796.767L390.833,543.433" style="fill:none;stroke:rgb(128,128,128);stroke-width:1.07px;"/>
                    </g>
                    <g transform="matrix(1.58941,0,0,-1.06281,143.674,785.102)">
                        <path d="M137.5,796.767L390.833,543.433" style="fill:none;stroke:rgb(128,128,128);stroke-width:1.13px;"/>
                    </g>
                    <g transform="matrix(1.59702,0,0,-1.0679,140.876,1053.21)">
                        <path d="M137.5,796.767L390.833,543.433" style="fill:none;stroke:rgb(128,128,128);stroke-width:1.13px;"/>
                    </g>
                    <g transform="matrix(1.60802,0,0,-1.07525,140.808,877.026)">
                        <path d="M137.5,796.767L390.833,543.433" style="fill:none;stroke:rgb(128,128,128);stroke-width:1.12px;"/>
                    </g>
                    <g transform="matrix(1.59604,0,0,-1.06724,140.002,1134.23)">
                        <path d="M137.5,796.767L390.833,543.433" style="fill:none;stroke:rgb(128,128,128);stroke-width:1.13px;"/>
                    </g>
                    <g transform="matrix(1.59267,0,0,-1.06499,142.114,827.201)">
                        <path d="M137.5,796.767L390.833,543.433" style="fill:none;stroke:rgb(128,128,128);stroke-width:1.13px;"/>
                    </g>
                    <g transform="matrix(1.58518,0,0,-1.05998,144.194,1089.14)">
                        <path d="M137.5,796.767L390.833,543.433" style="fill:none;stroke:rgb(128,128,128);stroke-width:1.14px;"/>
                    </g>
                    <g transform="matrix(1.58242,0,0,-1.05813,143.917,904.22)">
                        <path d="M137.5,796.767L390.833,543.433" style="fill:none;stroke:rgb(128,128,128);stroke-width:1.14px;"/>
                    </g>
                    <g transform="matrix(1.61943,0,0,-1.08288,134.799,1186.47)">
                        <path d="M137.5,796.767L390.833,543.433" style="fill:none;stroke:rgb(128,128,128);stroke-width:1.11px;"/>
                    </g>
                    <g transform="matrix(1.58806,0,0,-1.06191,143.244,792.15)">
                        <path d="M137.5,796.767L390.833,543.433" style="fill:none;stroke:rgb(128,128,128);stroke-width:1.13px;"/>
                    </g>
                    <g transform="matrix(1.59567,0,0,-1.06699,141.673,1061.08)">
                        <path d="M137.5,796.767L390.833,543.433" style="fill:none;stroke:rgb(128,128,128);stroke-width:1.13px;"/>
                    </g>
                    <g transform="matrix(1.58823,0,0,-1.06202,143.614,874.722)">
                        <path d="M137.5,796.767L390.833,543.433" style="fill:none;stroke:rgb(128,128,128);stroke-width:1.13px;"/>
                    </g>
                    <g transform="matrix(1.62057,0,0,-1.08364,134.613,1154.13)">
                        <path d="M137.5,796.767L390.833,543.433" style="fill:none;stroke:rgb(128,128,128);stroke-width:1.11px;"/>
                    </g>
                    <g transform="matrix(1.58101,0,0,-1.05719,144.854,829.927)">
                        <path d="M137.5,796.767L390.833,543.433" style="fill:none;stroke:rgb(128,128,128);stroke-width:1.14px;"/>
                    </g>
                    <g transform="matrix(1.58282,0,0,-1.0584,144.605,1096.12)">
                        <path d="M137.5,796.767L390.833,543.433" style="fill:none;stroke:rgb(128,128,128);stroke-width:1.14px;"/>
                    </g>
                    <g transform="matrix(1.58628,0,0,-1.06071,143.472,914.511)">
                        <path d="M137.5,796.767L390.833,543.433" style="fill:none;stroke:rgb(128,128,128);stroke-width:1.13px;"/>
                    </g>
                    <g transform="matrix(1.60357,0,0,-1.07227,135.488,1185.2)">
                        <path d="M137.5,796.767L390.833,543.433" style="fill:none;stroke:rgb(128,128,128);stroke-width:1.12px;"/>
                    </g>
                    <g transform="matrix(1.58213,0,0,-1.05794,143.723,920.481)">
                        <path d="M137.5,796.767L390.833,543.433" style="fill:none;stroke:rgb(128,128,128);stroke-width:1.14px;"/>
                    </g>
                    <g transform="matrix(1.62224,0,0,-1.08476,134.528,1204.62)">
                        <path d="M137.5,796.767L390.833,543.433" style="fill:none;stroke:rgb(128,128,128);stroke-width:1.11px;"/>
                    </g>
                    <g transform="matrix(1.58489,0,0,-1.05979,144.074,930.838)">
                        <path d="M137.5,796.767L390.833,543.433" style="fill:none;stroke:rgb(128,128,128);stroke-width:1.14px;"/>
                    </g>
                    <g transform="matrix(1.58697,0,0,-1.06118,143.613,1197.05)">
                        <path d="M137.5,796.767L390.833,543.433" style="fill:none;stroke:rgb(128,128,128);stroke-width:1.13px;"/>
                    </g>
                    <g transform="matrix(1.57709,0,0,-1.05457,145.442,761.867)">
                        <path d="M137.5,796.767L390.833,543.433" style="fill:none;stroke:rgb(128,128,128);stroke-width:1.14px;"/>
                    </g>
                    <g transform="matrix(1.59714,0,0,-1.06798,142.159,1037.43)">
                        <path d="M137.5,796.767L390.833,543.433" style="fill:none;stroke:rgb(128,128,128);stroke-width:1.13px;"/>
                    </g>
                    <g transform="matrix(1.58815,0,0,-1.06197,142.913,849.305)">
                        <path d="M137.5,796.767L390.833,543.433" style="fill:none;stroke:rgb(128,128,128);stroke-width:1.13px;"/>
                    </g>
                    <g transform="matrix(1.5923,0,0,-1.06474,143.919,1117.8)">
                        <path d="M137.5,796.767L390.833,543.433" style="fill:none;stroke:rgb(128,128,128);stroke-width:1.13px;"/>
                    </g>
                    <g transform="matrix(1.58536,0,0,-1.0601,143.192,806.64)">
                        <path d="M137.5,796.767L390.833,543.433" style="fill:none;stroke:rgb(128,128,128);stroke-width:1.14px;"/>
                    </g>
                    <g transform="matrix(1.58052,0,0,-1.05686,144.559,1069.76)">
                        <path d="M137.5,796.767L390.833,543.433" style="fill:none;stroke:rgb(128,128,128);stroke-width:1.14px;"/>
                    </g>
                    <g transform="matrix(1.58674,0,0,-1.06102,143.045,889.623)">
                        <path d="M137.5,796.767L390.833,543.433" style="fill:none;stroke:rgb(128,128,128);stroke-width:1.13px;"/>
                    </g>
                    <g transform="matrix(1.66351,0,0,-1.11235,130.037,1194.11)">
                        <path d="M137.5,796.767L390.833,543.433" style="fill:none;stroke:rgb(128,128,128);stroke-width:1.08px;"/>
                    </g>
                    <g transform="matrix(1.58385,0,0,-1.05909,143.934,757.048)">
                        <path d="M137.5,796.767L390.833,543.433" style="fill:none;stroke:rgb(128,128,128);stroke-width:1.14px;"/>
                    </g>
                    <g transform="matrix(1.58385,0,0,-1.05909,143.934,1022.28)">
                        <path d="M137.5,796.767L390.833,543.433" style="fill:none;stroke:rgb(128,128,128);stroke-width:1.14px;"/>
                    </g>
                    <g transform="matrix(1.58289,0,0,-1.05845,144.809,839.254)">
                        <path d="M137.5,796.767L390.833,543.433" style="fill:none;stroke:rgb(128,128,128);stroke-width:1.14px;"/>
                    </g>
                    <g transform="matrix(1.59798,0,0,-1.06854,139.932,1110.64)">
                        <path d="M137.5,796.767L390.833,543.433" style="fill:none;stroke:rgb(128,128,128);stroke-width:1.13px;"/>
                    </g>
                    <g transform="matrix(1.58584,0,0,-1.06042,143.949,799.413)">
                        <path d="M137.5,796.767L390.833,543.433" style="fill:none;stroke:rgb(128,128,128);stroke-width:1.14px;"/>
                    </g>
                    <g transform="matrix(1.59276,0,0,-1.06505,141.246,1067.15)">
                        <path d="M137.5,796.767L390.833,543.433" style="fill:none;stroke:rgb(128,128,128);stroke-width:1.13px;"/>
                    </g>
                    <g transform="matrix(1.58169,0,0,-1.05765,143.862,878.979)">
                        <path d="M137.5,796.767L390.833,543.433" style="fill:none;stroke:rgb(128,128,128);stroke-width:1.14px;"/>
                    </g>
                    <g transform="matrix(1.66122,0,0,-1.11083,130.298,1184.82)">
                        <path d="M137.5,796.767L390.833,543.433" style="fill:none;stroke:rgb(128,128,128);stroke-width:1.08px;"/>
                    </g>
                    <g transform="matrix(1.58703,0,0,-1.06121,144.703,1304.99)">
                        <path d="M137.5,796.767L390.833,543.433" style="fill:none;stroke:rgb(128,128,128);stroke-width:1.13px;"/>
                    </g>
                    <g transform="matrix(1.58703,0,0,-1.06121,142.89,1344.89)">
                        <path d="M137.5,796.767L390.833,543.433" style="fill:none;stroke:rgb(128,128,128);stroke-width:1.13px;"/>
                    </g>
                    <g transform="matrix(1.58149,0,0,-1.05751,144.734,1309.74)">
                        <path d="M137.5,796.767L390.833,543.433" style="fill:none;stroke:rgb(128,128,128);stroke-width:1.14px;"/>
                    </g>
                    <g transform="matrix(1.58426,0,0,-1.05936,143.592,1351.81)">
                        <path d="M137.5,796.767L390.833,543.433" style="fill:none;stroke:rgb(128,128,128);stroke-width:1.14px;"/>
                    </g>
                    <g transform="matrix(1.58426,0,0,-1.05936,144.089,1319.21)">
                        <path d="M137.5,796.767L390.833,543.433" style="fill:none;stroke:rgb(128,128,128);stroke-width:1.14px;"/>
                    </g>
                    <g transform="matrix(1.58426,0,0,-1.05936,144.089,1327.21)">
                        <path d="M137.5,796.767L390.833,543.433" style="fill:none;stroke:rgb(128,128,128);stroke-width:1.14px;"/>
                    </g>
                    <g transform="matrix(1.57873,0,0,-1.05566,145.139,1357.57)">
                        <path d="M137.5,796.767L390.833,543.433" style="fill:none;stroke:rgb(128,128,128);stroke-width:1.14px;"/>
                    </g>
                    <g transform="matrix(1.58979,0,0,-1.06306,141.914,1296.32)">
                        <path d="M137.5,796.767L390.833,543.433" style="fill:none;stroke:rgb(128,128,128);stroke-width:1.13px;"/>
                    </g>
                    <g transform="matrix(1.58149,0,0,-1.05751,145.097,1334.37)">
                        <path d="M137.5,796.767L390.833,543.433" style="fill:none;stroke:rgb(128,128,128);stroke-width:1.14px;"/>
                    </g>
                    <g transform="matrix(1.5684,0,0,-1.04876,147.595,1278.72)">
                        <path d="M137.5,796.767L358.759,575.508L390.833,543.433" style="fill:none;stroke:rgb(128,128,128);stroke-width:1.15px;"/>
                    </g>
                    <g transform="matrix(1.58119,0,0,-1.05731,145.533,1384.55)">
                        <path d="M137.5,796.767L390.833,543.433" style="fill:none;stroke:rgb(128,128,128);stroke-width:1.14px;"/>
                    </g>
                    <g transform="matrix(1.57974,0,0,-1.05634,144.725,1465.32)">
                        <path d="M137.5,796.767L390.833,543.433" style="fill:none;stroke:rgb(128,128,128);stroke-width:1.14px;"/>
                    </g>
                    <g transform="matrix(1.58124,0,0,-1.05735,144.765,1425.18)">
                        <path d="M137.5,796.767L390.833,543.433" style="fill:none;stroke:rgb(128,128,128);stroke-width:1.14px;"/>
                    </g>
                    <g transform="matrix(1.58941,0,0,-1.06281,143.674,1396.62)">
                        <path d="M137.5,796.767L390.833,543.433" style="fill:none;stroke:rgb(128,128,128);stroke-width:1.13px;"/>
                    </g>
                    <g transform="matrix(1.60802,0,0,-1.07525,140.808,1488.55)">
                        <path d="M137.5,796.767L390.833,543.433" style="fill:none;stroke:rgb(128,128,128);stroke-width:1.12px;"/>
                    </g>
                    <g transform="matrix(1.59267,0,0,-1.06499,142.114,1438.72)">
                        <path d="M137.5,796.767L390.833,543.433" style="fill:none;stroke:rgb(128,128,128);stroke-width:1.13px;"/>
                    </g>
                    <g transform="matrix(1.58806,0,0,-1.06191,143.244,1403.67)">
                        <path d="M137.5,796.767L390.833,543.433" style="fill:none;stroke:rgb(128,128,128);stroke-width:1.13px;"/>
                    </g>
                    <g transform="matrix(1.58823,0,0,-1.06202,143.614,1486.24)">
                        <path d="M137.5,796.767L390.833,543.433" style="fill:none;stroke:rgb(128,128,128);stroke-width:1.13px;"/>
                    </g>
                    <g transform="matrix(1.58101,0,0,-1.05719,144.854,1441.45)">
                        <path d="M137.5,796.767L390.833,543.433" style="fill:none;stroke:rgb(128,128,128);stroke-width:1.14px;"/>
                    </g>
                    <g transform="matrix(1.57709,0,0,-1.05457,145.442,1373.39)">
                        <path d="M137.5,796.767L390.833,543.433" style="fill:none;stroke:rgb(128,128,128);stroke-width:1.14px;"/>
                    </g>
                    <g transform="matrix(1.58815,0,0,-1.06197,142.913,1460.83)">
                        <path d="M137.5,796.767L390.833,543.433" style="fill:none;stroke:rgb(128,128,128);stroke-width:1.13px;"/>
                    </g>
                    <g transform="matrix(1.58536,0,0,-1.0601,143.192,1418.16)">
                        <path d="M137.5,796.767L390.833,543.433" style="fill:none;stroke:rgb(128,128,128);stroke-width:1.14px;"/>
                    </g>
                    <g transform="matrix(1.58674,0,0,-1.06102,143.045,1501.14)">
                        <path d="M137.5,796.767L390.833,543.433" style="fill:none;stroke:rgb(128,128,128);stroke-width:1.13px;"/>
                    </g>
                    <g transform="matrix(1.58385,0,0,-1.05909,143.934,1368.57)">
                        <path d="M137.5,796.767L390.833,543.433" style="fill:none;stroke:rgb(128,128,128);stroke-width:1.14px;"/>
                    </g>
                    <g transform="matrix(1.58289,0,0,-1.05845,144.809,1450.78)">
                        <path d="M137.5,796.767L390.833,543.433" style="fill:none;stroke:rgb(128,128,128);stroke-width:1.14px;"/>
                    </g>
                    <g transform="matrix(1.58584,0,0,-1.06042,143.949,1410.93)">
                        <path d="M137.5,796.767L390.833,543.433" style="fill:none;stroke:rgb(128,128,128);stroke-width:1.14px;"/>
                    </g>
                    <g transform="matrix(1.58169,0,0,-1.05765,143.862,1490.5)">
                        <path d="M137.5,796.767L390.833,543.433" style="fill:none;stroke:rgb(128,128,128);stroke-width:1.14px;"/>
                    </g>
                </g>
            </g>
        </g>
    </g>
</svg>
