<?xml version="1.0" encoding="UTF-8" standalone="no"?>
<!DOCTYPE svg PUBLIC "-//W3C//DTD SVG 1.1//EN" "http://www.w3.org/Graphics/SVG/1.1/DTD/svg11.dtd">
<svg width="100%" height="100%" viewBox="0 0 18 13" version="1.1" xmlns="http://www.w3.org/2000/svg" xmlns:xlink="http://www.w3.org/1999/xlink" xml:space="preserve" xmlns:serif="http://www.serif.com/" style="fill-rule:evenodd;clip-rule:evenodd;stroke-linejoin:round;stroke-miterlimit:1.41421;">
    <g transform="matrix(1,0,0,1,-1169.87,-4735.14)">
        <g transform="matrix(0.0423178,0,0,0.0423178,1169.87,4735.11)">
            <path d="M409.602,256.8C409.602,265.777 407.074,274.101 403.023,281.425L273.699,136.726L401.625,24.8C406.602,32.698 409.602,41.976 409.602,51.999L409.602,256.8ZM204.801,162.999L382.801,7.249C375.5,3.249 367.273,0.8 358.398,0.8L51.199,0.8C42.312,0.8 34.086,3.249 26.812,7.249L204.801,162.999ZM254.426,153.573L213.227,189.652C210.812,191.749 207.812,192.8 204.801,192.8C201.789,192.8 198.789,191.749 196.375,189.648L155.164,153.573L24.199,300.124C32.05,305.05 41.25,307.999 51.199,307.999L358.398,307.999C368.352,307.999 377.551,305.05 385.398,300.124L254.426,153.573ZM7.977,24.8C3,32.698 0,41.976 0,51.999L0,256.8C0,265.777 2.512,274.101 6.574,281.425L135.887,136.698L7.977,24.8Z" style="fill:rgb(82,99,121);fill-rule:nonzero;"/>
        </g>
    </g>
</svg>
