<?xml version="1.0" encoding="UTF-8" standalone="no"?>
<!DOCTYPE svg PUBLIC "-//W3C//DTD SVG 1.1//EN" "http://www.w3.org/Graphics/SVG/1.1/DTD/svg11.dtd">
<svg width="100%" height="100%" viewBox="0 0 123 123" version="1.1" xmlns="http://www.w3.org/2000/svg" xmlns:xlink="http://www.w3.org/1999/xlink" xml:space="preserve" xmlns:serif="http://www.serif.com/" style="fill-rule:evenodd;clip-rule:evenodd;stroke-linejoin:round;stroke-miterlimit:1.41421;">
    <g transform="matrix(1,0,0,1,-1339.67,-3017.29)">
        <g transform="matrix(1,0,0,1,0,-65)">
            <g transform="matrix(1,0,0,1,879.667,-110)">
                <circle cx="521.333" cy="3253.63" r="61.333" style="fill:rgb(245,245,247);fill-opacity:0.258824;"/>
                <path d="M521.73,3192.3L522.126,3192.3L522.521,3192.31L522.915,3192.31L523.309,3192.33L523.703,3192.34L524.095,3192.35L524.488,3192.37L524.879,3192.39L525.27,3192.42L525.66,3192.44L526.049,3192.47L526.438,3192.5L526.826,3192.54L527.214,3192.57L527.601,3192.61L527.987,3192.65L528.372,3192.69L528.757,3192.74L529.14,3192.79L529.524,3192.84L529.906,3192.89L530.288,3192.94L530.669,3193L531.049,3193.06L531.428,3193.12L531.807,3193.19L532.184,3193.25L532.561,3193.32L532.938,3193.39L533.313,3193.47L533.688,3193.54L534.061,3193.62L534.434,3193.7L534.806,3193.78L535.178,3193.87L535.548,3193.95L535.917,3194.04L536.286,3194.13L536.654,3194.23L537.021,3194.32L537.387,3194.42L537.752,3194.52L538.116,3194.62L538.479,3194.73L538.842,3194.83L539.203,3194.94L539.564,3195.05L539.923,3195.17L540.282,3195.28L540.639,3195.4L540.996,3195.52L541.352,3195.64L541.706,3195.76L542.06,3195.89L542.413,3196.02L542.764,3196.15L543.115,3196.28L543.465,3196.41L543.813,3196.55L544.161,3196.69L544.508,3196.83L544.853,3196.97L545.197,3197.12L545.541,3197.26L545.883,3197.41L546.224,3197.56L546.564,3197.72L546.904,3197.87L547.241,3198.03L547.578,3198.18L547.914,3198.35L548.249,3198.51L548.582,3198.67L548.914,3198.84L549.245,3199.01L549.575,3199.18L549.904,3199.35L550.232,3199.52L550.558,3199.7L550.884,3199.88L551.208,3200.06L551.531,3200.24L551.852,3200.42L552.173,3200.61L552.492,3200.8L552.81,3200.99L553.127,3201.18L553.442,3201.37L553.757,3201.57L554.07,3201.76L554.381,3201.96L554.692,3202.16L555.001,3202.36L555.309,3202.57L555.615,3202.77L555.921,3202.98L556.225,3203.19L556.527,3203.4L556.829,3203.62L557.129,3203.83L557.427,3204.05L557.724,3204.26L558.02,3204.49L558.315,3204.71L558.608,3204.93L558.9,3205.16L559.19,3205.38L559.479,3205.61L559.767,3205.84L560.053,3206.07L560.338,3206.31L560.621,3206.54L560.903,3206.78L561.183,3207.02L561.462,3207.26L561.74,3207.5L562.016,3207.74L562.29,3207.99L562.563,3208.23L562.835,3208.48L563.105,3208.73L563.374,3208.98L563.641,3209.24L563.906,3209.49L564.171,3209.75L564.433,3210.01L564.694,3210.27L564.953,3210.53L565.211,3210.79L565.468,3211.05L565.722,3211.32L565.976,3211.59L566.227,3211.86L566.477,3212.13L566.725,3212.4L566.972,3212.67L567.217,3212.94L567.461,3213.22L567.703,3213.5L567.943,3213.78L568.182,3214.06L568.419,3214.34L568.654,3214.62L568.887,3214.91L569.119,3215.19L569.35,3215.48L569.578,3215.77L569.805,3216.06L570.03,3216.35L570.254,3216.64L570.475,3216.94L570.695,3217.24L570.913,3217.53L571.13,3217.83L571.345,3218.13L571.558,3218.43L571.769,3218.74L571.978,3219.04L572.186,3219.35L572.392,3219.65L572.596,3219.96L572.798,3220.27L572.999,3220.58L573.197,3220.89L573.394,3221.2L573.589,3221.52L573.782,3221.83L573.973,3222.15L574.163,3222.47L574.35,3222.79L574.536,3223.11L574.72,3223.43L574.901,3223.75L575.081,3224.08L575.259,3224.4L575.436,3224.73L575.61,3225.06L575.782,3225.38L575.953,3225.71L576.121,3226.05L576.288,3226.38L576.452,3226.71L576.615,3227.05L576.775,3227.38L576.934,3227.72L577.091,3228.06L577.245,3228.39L577.398,3228.74L577.548,3229.08L577.697,3229.42L577.844,3229.76L577.988,3230.11L578.131,3230.45L578.271,3230.8L578.41,3231.15L578.546,3231.49L578.68,3231.85L578.812,3232.2L578.942,3232.55L579.07,3232.9L579.196,3233.25L579.32,3233.61L579.442,3233.96L579.561,3234.32L579.679,3234.68L579.794,3235.04L579.907,3235.4L580.018,3235.76L580.127,3236.12L580.234,3236.48L580.338,3236.84L580.441,3237.21L580.541,3237.57L580.639,3237.94L580.734,3238.31L580.828,3238.67L580.919,3239.04L581.008,3239.41L581.095,3239.78L581.18,3240.15L581.262,3240.53L581.342,3240.9L581.42,3241.27L581.495,3241.65L581.568,3242.02L581.639,3242.4L581.708,3242.78L581.774,3243.15L581.838,3243.53L581.9,3243.91L581.959,3244.29L582.016,3244.67L582.071,3245.05L582.124,3245.44L582.174,3245.82L582.221,3246.2L582.266,3246.59L582.309,3246.97L582.35,3247.36L582.388,3247.75L582.424,3248.13L582.457,3248.52L582.488,3248.91L582.516,3249.3L582.542,3249.69L582.566,3250.08L582.587,3250.47L582.605,3250.86L582.622,3251.26L582.635,3251.65L582.647,3252.05L582.655,3252.44L582.662,3252.83L582.665,3253.23L582.667,3253.63L582.665,3254.02L582.662,3254.42L582.655,3254.81L582.647,3255.21L582.635,3255.6L582.622,3256L582.605,3256.39L582.587,3256.78L582.566,3257.17L582.542,3257.56L582.516,3257.95L582.488,3258.34L582.457,3258.73L582.424,3259.12L582.388,3259.51L582.35,3259.89L582.309,3260.28L582.266,3260.66L582.221,3261.05L582.174,3261.43L582.124,3261.82L582.071,3262.2L582.016,3262.58L581.959,3262.96L581.9,3263.34L581.838,3263.72L581.774,3264.1L581.708,3264.48L581.639,3264.86L581.568,3265.23L581.495,3265.61L581.42,3265.98L581.342,3266.36L581.262,3266.73L581.18,3267.1L581.095,3267.47L581.008,3267.84L580.919,3268.21L580.828,3268.58L580.734,3268.95L580.639,3269.31L580.541,3269.68L580.441,3270.05L580.338,3270.41L580.234,3270.77L580.127,3271.14L580.018,3271.5L579.907,3271.86L579.794,3272.22L579.679,3272.58L579.561,3272.93L579.442,3273.29L579.32,3273.64L579.196,3274L579.07,3274.35L578.942,3274.71L578.812,3275.06L578.68,3275.41L578.546,3275.76L578.41,3276.11L578.271,3276.45L578.131,3276.8L577.988,3277.15L577.844,3277.49L577.697,3277.83L577.548,3278.18L577.398,3278.52L577.245,3278.86L577.091,3279.2L576.934,3279.53L576.775,3279.87L576.615,3280.21L576.452,3280.54L576.288,3280.88L576.121,3281.21L575.953,3281.54L575.782,3281.87L575.61,3282.2L575.436,3282.53L575.259,3282.85L575.081,3283.18L574.901,3283.5L574.72,3283.82L574.536,3284.15L574.35,3284.47L574.163,3284.78L573.973,3285.1L573.782,3285.42L573.589,3285.74L573.394,3286.05L573.197,3286.36L572.999,3286.68L572.798,3286.99L572.596,3287.29L572.392,3287.6L572.186,3287.91L571.978,3288.21L571.769,3288.52L571.558,3288.82L571.345,3289.12L571.13,3289.42L570.913,3289.72L570.695,3290.02L570.475,3290.31L570.254,3290.61L570.03,3290.9L569.805,3291.19L569.578,3291.48L569.35,3291.77L569.119,3292.06L568.887,3292.35L568.654,3292.63L568.419,3292.91L568.182,3293.2L567.943,3293.48L567.703,3293.76L567.461,3294.03L567.217,3294.31L566.972,3294.58L566.725,3294.86L566.477,3295.13L566.227,3295.4L565.976,3295.67L565.722,3295.93L565.468,3296.2L565.211,3296.46L564.953,3296.73L564.694,3296.99L564.433,3297.25L564.171,3297.51L563.906,3297.76L563.641,3298.02L563.374,3298.27L563.105,3298.52L562.835,3298.77L562.563,3299.02L562.29,3299.26L562.016,3299.51L561.74,3299.75L561.462,3300L561.183,3300.24L560.903,3300.47L560.621,3300.71L560.338,3300.95L560.053,3301.18L559.767,3301.41L559.479,3301.64L559.19,3301.87L558.9,3302.1L558.608,3302.32L558.315,3302.55L558.02,3302.77L557.724,3302.99L557.427,3303.21L557.129,3303.42L556.829,3303.64L556.527,3303.85L556.225,3304.06L555.921,3304.27L555.615,3304.48L555.309,3304.68L555.001,3304.89L554.692,3305.09L554.381,3305.29L554.07,3305.49L553.757,3305.69L553.442,3305.88L553.127,3306.08L552.81,3306.27L552.492,3306.46L552.173,3306.64L551.852,3306.83L551.531,3307.01L551.208,3307.2L550.884,3307.38L550.558,3307.55L550.232,3307.73L549.904,3307.9L549.575,3308.08L549.245,3308.25L548.914,3308.41L548.582,3308.58L548.249,3308.74L547.914,3308.91L547.578,3309.07L547.241,3309.23L546.904,3309.38L546.564,3309.54L546.224,3309.69L545.883,3309.84L545.541,3309.99L545.197,3310.14L544.853,3310.28L544.508,3310.42L544.161,3310.56L543.813,3310.7L543.465,3310.84L543.115,3310.97L542.764,3311.11L542.413,3311.24L542.06,3311.36L541.706,3311.49L541.352,3311.61L540.996,3311.74L540.639,3311.86L540.282,3311.97L539.923,3312.09L539.564,3312.2L539.203,3312.31L538.842,3312.42L538.479,3312.53L538.116,3312.63L537.752,3312.73L537.387,3312.83L537.021,3312.93L536.654,3313.03L536.286,3313.12L535.917,3313.21L535.548,3313.3L535.178,3313.39L534.806,3313.47L534.434,3313.56L534.061,3313.64L533.688,3313.71L533.313,3313.79L532.938,3313.86L532.561,3313.93L532.184,3314L531.807,3314.07L531.428,3314.13L531.049,3314.19L530.669,3314.25L530.288,3314.31L529.906,3314.36L529.524,3314.42L529.14,3314.47L528.757,3314.51L528.372,3314.56L527.987,3314.6L527.601,3314.64L527.214,3314.68L526.826,3314.72L526.438,3314.75L526.049,3314.78L525.66,3314.81L525.27,3314.84L524.879,3314.86L524.488,3314.88L524.095,3314.9L523.703,3314.91L523.309,3314.93L522.915,3314.94L522.521,3314.95L522.126,3314.95L521.73,3314.96L521.333,3314.96L520.937,3314.96L520.541,3314.95L520.146,3314.95L519.751,3314.94L519.357,3314.93L518.964,3314.91L518.571,3314.9L518.179,3314.88L517.788,3314.86L517.397,3314.84L517.007,3314.81L516.617,3314.78L516.228,3314.75L515.84,3314.72L515.453,3314.68L515.066,3314.64L514.68,3314.6L514.295,3314.56L513.91,3314.51L513.526,3314.47L513.143,3314.42L512.761,3314.36L512.379,3314.31L511.998,3314.25L511.618,3314.19L511.239,3314.13L510.86,3314.07L510.482,3314L510.105,3313.93L509.729,3313.86L509.354,3313.79L508.979,3313.71L508.605,3313.64L508.232,3313.56L507.86,3313.47L507.489,3313.39L507.119,3313.3L506.749,3313.21L506.381,3313.12L506.013,3313.03L505.646,3312.93L505.28,3312.83L504.915,3312.73L504.551,3312.63L504.187,3312.53L503.825,3312.42L503.464,3312.31L503.103,3312.2L502.744,3312.09L502.385,3311.97L502.027,3311.86L501.671,3311.74L501.315,3311.61L500.96,3311.49L500.607,3311.36L500.254,3311.24L499.902,3311.11L499.552,3310.97L499.202,3310.84L498.853,3310.7L498.506,3310.56L498.159,3310.42L497.814,3310.28L497.469,3310.14L497.126,3309.99L496.784,3309.84L496.442,3309.69L496.102,3309.54L495.763,3309.38L495.425,3309.23L495.088,3309.07L494.753,3308.91L494.418,3308.74L494.085,3308.58L493.752,3308.41L493.421,3308.25L493.091,3308.08L492.762,3307.9L492.435,3307.73L492.108,3307.55L491.783,3307.38L491.459,3307.2L491.136,3307.01L490.814,3306.83L490.494,3306.64L490.175,3306.46L489.857,3306.27L489.54,3306.08L489.224,3305.88L488.91,3305.69L488.597,3305.49L488.285,3305.29L487.975,3305.09L487.666,3304.89L487.358,3304.68L487.051,3304.48L486.746,3304.27L486.442,3304.06L486.139,3303.85L485.838,3303.64L485.538,3303.42L485.24,3303.21L484.942,3302.99L484.646,3302.77L484.352,3302.55L484.059,3302.32L483.767,3302.1L483.477,3301.87L483.188,3301.64L482.9,3301.41L482.614,3301.18L482.329,3300.95L482.046,3300.71L481.764,3300.47L481.483,3300.24L481.204,3300L480.927,3299.75L480.651,3299.51L480.376,3299.26L480.103,3299.02L479.832,3298.77L479.561,3298.52L479.293,3298.27L479.026,3298.02L478.76,3297.76L478.496,3297.51L478.234,3297.25L477.973,3296.99L477.713,3296.73L477.455,3296.46L477.199,3296.2L476.944,3295.93L476.691,3295.67L476.44,3295.4L476.19,3295.13L475.941,3294.86L475.694,3294.58L475.449,3294.31L475.206,3294.03L474.964,3293.76L474.724,3293.48L474.485,3293.2L474.248,3292.91L474.013,3292.63L473.779,3292.35L473.547,3292.06L473.317,3291.77L473.089,3291.48L472.862,3291.19L472.637,3290.9L472.413,3290.61L472.191,3290.31L471.971,3290.02L471.753,3289.72L471.537,3289.42L471.322,3289.12L471.109,3288.82L470.898,3288.52L470.688,3288.21L470.481,3287.91L470.275,3287.6L470.071,3287.29L469.869,3286.99L469.668,3286.68L469.47,3286.36L469.273,3286.05L469.078,3285.74L468.885,3285.42L468.693,3285.1L468.504,3284.78L468.317,3284.47L468.131,3284.15L467.947,3283.82L467.765,3283.5L467.585,3283.18L467.407,3282.85L467.231,3282.53L467.057,3282.2L466.884,3281.87L466.714,3281.54L466.546,3281.21L466.379,3280.88L466.215,3280.54L466.052,3280.21L465.891,3279.87L465.733,3279.53L465.576,3279.2L465.422,3278.86L465.269,3278.52L465.118,3278.18L464.97,3277.83L464.823,3277.49L464.679,3277.15L464.536,3276.8L464.396,3276.45L464.257,3276.11L464.121,3275.76L463.987,3275.41L463.854,3275.06L463.724,3274.71L463.596,3274.35L463.47,3274L463.346,3273.64L463.225,3273.29L463.105,3272.93L462.988,3272.58L462.873,3272.22L462.759,3271.86L462.648,3271.5L462.54,3271.14L462.433,3270.77L462.328,3270.41L462.226,3270.05L462.126,3269.68L462.028,3269.31L461.932,3268.95L461.839,3268.58L461.748,3268.21L461.659,3267.84L461.572,3267.47L461.487,3267.1L461.405,3266.73L461.325,3266.36L461.247,3265.98L461.171,3265.61L461.098,3265.23L461.027,3264.86L460.959,3264.48L460.892,3264.1L460.828,3263.72L460.767,3263.34L460.707,3262.96L460.65,3262.58L460.595,3262.2L460.543,3261.82L460.493,3261.43L460.446,3261.05L460.4,3260.66L460.357,3260.28L460.317,3259.89L460.279,3259.51L460.243,3259.12L460.21,3258.73L460.179,3258.34L460.151,3257.95L460.125,3257.56L460.101,3257.17L460.08,3256.78L460.061,3256.39L460.045,3256L460.031,3255.6L460.02,3255.21L460.011,3254.81L460.005,3254.42L460.001,3254.02L460,3253.63L460.001,3253.23L460.005,3252.83L460.011,3252.44L460.02,3252.05L460.031,3251.65L460.045,3251.26L460.061,3250.86L460.08,3250.47L460.101,3250.08L460.125,3249.69L460.151,3249.3L460.179,3248.91L460.21,3248.52L460.243,3248.13L460.279,3247.75L460.317,3247.36L460.357,3246.97L460.4,3246.59L460.446,3246.2L460.493,3245.82L460.543,3245.44L460.595,3245.05L460.65,3244.67L460.707,3244.29L460.767,3243.91L460.828,3243.53L460.892,3243.15L460.959,3242.78L461.027,3242.4L461.098,3242.02L461.171,3241.65L461.247,3241.27L461.325,3240.9L461.405,3240.53L461.487,3240.15L461.572,3239.78L461.659,3239.41L461.748,3239.04L461.839,3238.67L461.932,3238.31L462.028,3237.94L462.126,3237.57L462.226,3237.21L462.328,3236.84L462.433,3236.48L462.54,3236.12L462.648,3235.76L462.759,3235.4L462.873,3235.04L462.988,3234.68L463.105,3234.32L463.225,3233.96L463.346,3233.61L463.47,3233.25L463.596,3232.9L463.724,3232.55L463.854,3232.2L463.987,3231.85L464.121,3231.49L464.257,3231.15L464.396,3230.8L464.536,3230.45L464.679,3230.11L464.823,3229.76L464.97,3229.42L465.118,3229.08L465.269,3228.74L465.422,3228.39L465.576,3228.06L465.733,3227.72L465.891,3227.38L466.052,3227.05L466.215,3226.71L466.379,3226.38L466.546,3226.05L466.714,3225.71L466.884,3225.38L467.057,3225.06L467.231,3224.73L467.407,3224.4L467.585,3224.08L467.765,3223.75L467.947,3223.43L468.131,3223.11L468.317,3222.79L468.504,3222.47L468.693,3222.15L468.885,3221.83L469.078,3221.52L469.273,3221.2L469.47,3220.89L469.668,3220.58L469.869,3220.27L470.071,3219.96L470.275,3219.65L470.481,3219.35L470.688,3219.04L470.898,3218.74L471.109,3218.43L471.322,3218.13L471.537,3217.83L471.753,3217.53L471.971,3217.24L472.191,3216.94L472.413,3216.64L472.637,3216.35L472.862,3216.06L473.089,3215.77L473.317,3215.48L473.547,3215.19L473.779,3214.91L474.013,3214.62L474.248,3214.34L474.485,3214.06L474.724,3213.78L474.964,3213.5L475.206,3213.22L475.449,3212.94L475.694,3212.67L475.941,3212.4L476.19,3212.13L476.44,3211.86L476.691,3211.59L476.944,3211.32L477.199,3211.05L477.455,3210.79L477.713,3210.53L477.973,3210.27L478.234,3210.01L478.496,3209.75L478.76,3209.49L479.026,3209.24L479.293,3208.98L479.561,3208.73L479.832,3208.48L480.103,3208.23L480.376,3207.99L480.651,3207.74L480.927,3207.5L481.204,3207.26L481.483,3207.02L481.764,3206.78L482.046,3206.54L482.329,3206.31L482.614,3206.07L482.9,3205.84L483.188,3205.61L483.477,3205.38L483.767,3205.16L484.059,3204.93L484.352,3204.71L484.646,3204.49L484.942,3204.26L485.24,3204.05L485.538,3203.83L485.838,3203.62L486.139,3203.4L486.442,3203.19L486.746,3202.98L487.051,3202.77L487.358,3202.57L487.666,3202.36L487.975,3202.16L488.285,3201.96L488.597,3201.76L488.91,3201.57L489.224,3201.37L489.54,3201.18L489.857,3200.99L490.175,3200.8L490.494,3200.61L490.814,3200.42L491.136,3200.24L491.459,3200.06L491.783,3199.88L492.108,3199.7L492.435,3199.52L492.762,3199.35L493.091,3199.18L493.421,3199.01L493.752,3198.84L494.085,3198.67L494.418,3198.51L494.753,3198.35L495.088,3198.18L495.425,3198.03L495.763,3197.87L496.102,3197.72L496.442,3197.56L496.784,3197.41L497.126,3197.26L497.469,3197.12L497.814,3196.97L498.159,3196.83L498.506,3196.69L498.853,3196.55L499.202,3196.41L499.552,3196.28L499.902,3196.15L500.254,3196.02L500.607,3195.89L500.96,3195.76L501.315,3195.64L501.671,3195.52L502.027,3195.4L502.385,3195.28L502.744,3195.17L503.103,3195.05L503.464,3194.94L503.825,3194.83L504.187,3194.73L504.551,3194.62L504.915,3194.52L505.28,3194.42L505.646,3194.32L506.013,3194.23L506.381,3194.13L506.749,3194.04L507.119,3193.95L507.489,3193.87L507.86,3193.78L508.232,3193.7L508.605,3193.62L508.979,3193.54L509.354,3193.47L509.729,3193.39L510.105,3193.32L510.482,3193.25L510.86,3193.19L511.239,3193.12L511.618,3193.06L511.998,3193L512.379,3192.94L512.761,3192.89L513.143,3192.84L513.526,3192.79L513.91,3192.74L514.295,3192.69L514.68,3192.65L515.066,3192.61L515.453,3192.57L515.84,3192.54L516.228,3192.5L516.617,3192.47L517.007,3192.44L517.397,3192.42L517.788,3192.39L518.179,3192.37L518.571,3192.35L518.964,3192.34L519.357,3192.33L519.751,3192.31L520.146,3192.31L520.541,3192.3L520.937,3192.3L521.333,3192.29L521.73,3192.3ZM520.968,3197.29L520.604,3197.3L520.241,3197.3L519.879,3197.31L519.515,3197.32L519.154,3197.34L518.793,3197.35L518.432,3197.37L518.073,3197.39L517.714,3197.41L517.355,3197.43L516.997,3197.46L516.64,3197.49L516.283,3197.52L515.927,3197.55L515.572,3197.59L515.217,3197.62L514.864,3197.66L514.511,3197.7L514.157,3197.75L513.806,3197.79L513.455,3197.84L513.104,3197.89L512.754,3197.94L512.404,3198L512.057,3198.05L511.709,3198.11L511.363,3198.17L511.017,3198.24L510.671,3198.3L510.326,3198.37L509.983,3198.44L509.639,3198.51L509.297,3198.58L508.956,3198.66L508.615,3198.74L508.274,3198.82L507.936,3198.9L507.597,3198.98L507.26,3199.07L506.924,3199.16L506.587,3199.24L506.252,3199.34L505.918,3199.43L505.584,3199.53L505.251,3199.63L504.92,3199.72L504.59,3199.83L504.259,3199.93L503.93,3200.04L503.603,3200.14L503.275,3200.25L502.949,3200.37L502.622,3200.48L502.297,3200.6L501.975,3200.71L501.652,3200.83L501.329,3200.95L501.009,3201.08L500.689,3201.2L500.37,3201.33L500.051,3201.46L499.734,3201.59L499.418,3201.72L499.104,3201.86L498.789,3201.99L498.475,3202.13L498.164,3202.27L497.852,3202.41L497.541,3202.56L497.232,3202.7L496.924,3202.85L496.617,3203L496.312,3203.15L496.005,3203.3L495.701,3203.46L495.399,3203.61L495.098,3203.77L494.797,3203.93L494.496,3204.09L494.197,3204.26L493.899,3204.42L493.603,3204.59L493.307,3204.76L493.013,3204.93L492.72,3205.1L492.428,3205.28L492.137,3205.45L491.847,3205.63L491.559,3205.81L491.271,3205.99L490.985,3206.17L490.7,3206.35L490.416,3206.54L490.133,3206.73L489.851,3206.92L489.571,3207.11L489.291,3207.3L489.013,3207.49L488.736,3207.69L488.461,3207.89L488.186,3208.09L487.913,3208.29L487.642,3208.49L487.37,3208.69L487.101,3208.9L486.834,3209.1L486.566,3209.31L486.3,3209.52L486.036,3209.74L485.774,3209.95L485.513,3210.16L485.252,3210.38L484.992,3210.6L484.735,3210.82L484.478,3211.04L484.224,3211.26L483.97,3211.48L483.717,3211.71L483.466,3211.93L483.217,3212.16L482.969,3212.39L482.722,3212.62L482.476,3212.86L482.232,3213.09L481.989,3213.33L481.748,3213.56L481.508,3213.8L481.27,3214.04L481.033,3214.28L480.797,3214.53L480.563,3214.77L480.33,3215.01L480.099,3215.26L479.87,3215.51L479.641,3215.76L479.414,3216.01L479.189,3216.26L478.965,3216.52L478.743,3216.77L478.523,3217.03L478.303,3217.29L478.085,3217.55L477.869,3217.81L477.655,3218.07L477.441,3218.33L477.229,3218.59L477.02,3218.86L476.811,3219.13L476.604,3219.39L476.399,3219.66L476.195,3219.93L475.993,3220.21L475.792,3220.48L475.594,3220.75L475.396,3221.03L475.2,3221.31L475.007,3221.58L474.814,3221.86L474.623,3222.14L474.434,3222.43L474.247,3222.71L474.061,3222.99L473.877,3223.28L473.695,3223.56L473.513,3223.85L473.334,3224.14L473.157,3224.43L472.982,3224.72L472.808,3225.01L472.636,3225.31L472.465,3225.6L472.296,3225.9L472.129,3226.19L471.964,3226.49L471.8,3226.79L471.639,3227.09L471.479,3227.39L471.32,3227.69L471.164,3227.99L471.009,3228.3L470.856,3228.6L470.705,3228.91L470.556,3229.22L470.408,3229.53L470.263,3229.84L470.119,3230.14L469.977,3230.46L469.837,3230.77L469.699,3231.08L469.562,3231.4L469.427,3231.71L469.295,3232.03L469.164,3232.34L469.035,3232.66L468.908,3232.98L468.783,3233.3L468.66,3233.62L468.538,3233.95L468.419,3234.27L468.301,3234.59L468.186,3234.92L468.072,3235.24L467.961,3235.57L467.851,3235.89L467.743,3236.22L467.637,3236.55L467.533,3236.88L467.432,3237.21L467.332,3237.55L467.234,3237.88L467.138,3238.21L467.044,3238.55L466.952,3238.88L466.862,3239.22L466.774,3239.55L466.689,3239.89L466.605,3240.23L466.523,3240.57L466.443,3240.91L466.366,3241.25L466.29,3241.59L466.217,3241.93L466.145,3242.28L466.076,3242.62L466.009,3242.96L465.944,3243.31L465.881,3243.66L465.82,3244L465.761,3244.35L465.704,3244.7L465.65,3245.05L465.597,3245.4L465.547,3245.75L465.499,3246.1L465.453,3246.45L465.409,3246.8L465.368,3247.16L465.328,3247.51L465.291,3247.87L465.256,3248.22L465.224,3248.58L465.193,3248.93L465.165,3249.29L465.138,3249.65L465.115,3250.01L465.093,3250.37L465.073,3250.73L465.056,3251.09L465.041,3251.45L465.029,3251.81L465.018,3252.17L465.01,3252.53L465.005,3252.9L465.001,3253.26L465,3253.63L465.001,3253.99L465.005,3254.36L465.01,3254.72L465.018,3255.08L465.029,3255.44L465.041,3255.81L465.056,3256.17L465.073,3256.53L465.093,3256.89L465.115,3257.25L465.138,3257.61L465.165,3257.96L465.193,3258.32L465.224,3258.68L465.256,3259.03L465.291,3259.39L465.328,3259.74L465.368,3260.1L465.409,3260.45L465.453,3260.8L465.499,3261.15L465.547,3261.51L465.597,3261.86L465.65,3262.2L465.704,3262.56L465.761,3262.9L465.82,3263.25L465.881,3263.6L465.944,3263.94L466.009,3264.29L466.076,3264.63L466.145,3264.98L466.217,3265.32L466.29,3265.66L466.366,3266L466.443,3266.35L466.523,3266.68L466.605,3267.02L466.689,3267.36L466.774,3267.7L466.862,3268.04L466.952,3268.37L467.044,3268.71L467.138,3269.04L467.234,3269.38L467.332,3269.71L467.432,3270.04L467.533,3270.37L467.637,3270.7L467.743,3271.03L467.851,3271.36L467.961,3271.69L468.072,3272.01L468.186,3272.34L468.301,3272.66L468.419,3272.99L468.538,3273.31L468.66,3273.63L468.783,3273.95L468.908,3274.27L469.035,3274.59L469.164,3274.91L469.295,3275.22L469.428,3275.54L469.562,3275.86L469.698,3276.17L469.837,3276.48L469.977,3276.8L470.119,3277.11L470.263,3277.42L470.408,3277.73L470.556,3278.04L470.705,3278.34L470.856,3278.65L471.009,3278.95L471.164,3279.26L471.32,3279.56L471.479,3279.86L471.639,3280.16L471.8,3280.46L471.964,3280.76L472.129,3281.06L472.296,3281.36L472.465,3281.65L472.636,3281.95L472.808,3282.24L472.982,3282.53L473.157,3282.82L473.334,3283.11L473.514,3283.4L473.695,3283.69L473.877,3283.97L474.061,3284.26L474.247,3284.55L474.434,3284.83L474.623,3285.11L474.814,3285.39L475.007,3285.67L475.2,3285.95L475.396,3286.22L475.594,3286.5L475.792,3286.77L475.993,3287.05L476.196,3287.32L476.399,3287.59L476.604,3287.86L476.811,3288.13L477.02,3288.39L477.23,3288.66L477.441,3288.92L477.654,3289.19L477.869,3289.45L478.085,3289.71L478.303,3289.97L478.523,3290.23L478.744,3290.48L478.965,3290.74L479.189,3290.99L479.414,3291.24L479.64,3291.49L479.87,3291.74L480.099,3291.99L480.33,3292.24L480.563,3292.48L480.797,3292.73L481.033,3292.97L481.27,3293.21L481.508,3293.45L481.748,3293.69L481.99,3293.93L482.232,3294.16L482.475,3294.4L482.721,3294.63L482.969,3294.86L483.217,3295.09L483.466,3295.32L483.717,3295.55L483.97,3295.77L484.224,3295.99L484.478,3296.22L484.735,3296.44L484.992,3296.66L485.252,3296.88L485.513,3297.09L485.774,3297.31L486.036,3297.52L486.301,3297.73L486.566,3297.94L486.833,3298.15L487.101,3298.36L487.37,3298.56L487.642,3298.76L487.913,3298.97L488.186,3299.17L488.461,3299.37L488.736,3299.56L489.013,3299.76L489.291,3299.95L489.571,3300.15L489.851,3300.34L490.133,3300.53L490.416,3300.71L490.7,3300.9L490.985,3301.08L491.271,3301.26L491.559,3301.45L491.847,3301.63L492.137,3301.8L492.428,3301.98L492.72,3302.15L493.013,3302.33L493.307,3302.49L493.602,3302.66L493.899,3302.83L494.197,3303L494.497,3303.16L494.797,3303.32L495.097,3303.48L495.399,3303.64L495.702,3303.8L496.005,3303.95L496.311,3304.1L496.617,3304.26L496.924,3304.4L497.232,3304.55L497.542,3304.7L497.852,3304.84L498.163,3304.98L498.476,3305.12L498.789,3305.26L499.103,3305.4L499.418,3305.53L499.734,3305.66L500.051,3305.8L500.37,3305.93L500.689,3306.05L501.009,3306.18L501.329,3306.3L501.652,3306.42L501.975,3306.54L502.298,3306.66L502.623,3306.77L502.947,3306.89L503.274,3307L503.603,3307.11L503.931,3307.22L504.259,3307.32L504.589,3307.43L504.92,3307.53L505.251,3307.63L505.584,3307.73L505.918,3307.82L506.253,3307.92L506.587,3308.01L506.923,3308.1L507.261,3308.19L507.597,3308.27L507.935,3308.36L508.274,3308.44L508.616,3308.52L508.956,3308.59L509.297,3308.67L509.639,3308.74L509.982,3308.81L510.326,3308.88L510.672,3308.95L511.017,3309.02L511.362,3309.08L511.709,3309.14L512.057,3309.2L512.405,3309.26L512.754,3309.31L513.104,3309.36L513.455,3309.41L513.806,3309.46L514.157,3309.51L514.509,3309.55L514.864,3309.59L515.217,3309.63L515.572,3309.67L515.927,3309.7L516.283,3309.74L516.64,3309.77L516.997,3309.8L517.355,3309.82L517.714,3309.85L518.073,3309.87L518.432,3309.89L518.793,3309.9L519.154,3309.92L519.515,3309.93L519.879,3309.94L520.241,3309.95L520.604,3309.95L520.97,3309.96L521.333,3309.96L521.697,3309.96L522.063,3309.95L522.426,3309.95L522.788,3309.94L523.151,3309.93L523.513,3309.92L523.873,3309.9L524.235,3309.89L524.594,3309.87L524.953,3309.85L525.312,3309.82L525.67,3309.8L526.026,3309.77L526.383,3309.74L526.739,3309.7L527.095,3309.67L527.449,3309.63L527.803,3309.59L528.157,3309.55L528.51,3309.51L528.861,3309.46L529.212,3309.41L529.563,3309.36L529.913,3309.31L530.261,3309.26L530.61,3309.2L530.958,3309.14L531.305,3309.08L531.65,3309.02L531.995,3308.95L532.34,3308.88L532.685,3308.81L533.028,3308.74L533.37,3308.67L533.711,3308.59L534.051,3308.52L534.392,3308.44L534.732,3308.36L535.069,3308.27L535.406,3308.19L535.744,3308.1L536.08,3308.01L536.414,3307.92L536.749,3307.82L537.083,3307.73L537.415,3307.63L537.746,3307.53L538.078,3307.43L538.407,3307.32L538.736,3307.22L539.064,3307.11L539.393,3307L539.719,3306.89L540.044,3306.77L540.368,3306.66L540.692,3306.54L541.015,3306.42L541.337,3306.3L541.658,3306.18L541.977,3306.05L542.297,3305.93L542.615,3305.8L542.933,3305.66L543.248,3305.53L543.564,3305.4L543.878,3305.26L544.19,3305.12L544.504,3304.98L544.815,3304.84L545.125,3304.7L545.435,3304.55L545.743,3304.4L546.049,3304.26L546.356,3304.1L546.661,3303.95L546.965,3303.8L547.268,3303.64L547.57,3303.48L547.87,3303.32L548.17,3303.16L548.47,3303L548.767,3302.83L549.064,3302.66L549.359,3302.49L549.654,3302.32L549.946,3302.15L550.238,3301.98L550.53,3301.8L550.819,3301.63L551.108,3301.45L551.396,3301.26L551.682,3301.08L551.967,3300.9L552.251,3300.71L552.534,3300.53L552.816,3300.34L553.096,3300.15L553.375,3299.95L553.654,3299.76L553.931,3299.56L554.206,3299.37L554.48,3299.17L554.754,3298.97L555.025,3298.76L555.296,3298.56L555.566,3298.36L555.834,3298.15L556.1,3297.94L556.365,3297.73L556.63,3297.52L556.893,3297.31L557.154,3297.09L557.415,3296.88L557.674,3296.66L557.932,3296.44L558.189,3296.22L558.443,3295.99L558.697,3295.77L558.95,3295.55L559.201,3295.32L559.45,3295.09L559.698,3294.86L559.946,3294.63L560.191,3294.4L560.434,3294.16L560.677,3293.93L560.919,3293.69L561.159,3293.45L561.397,3293.21L561.633,3292.97L561.869,3292.73L562.104,3292.48L562.336,3292.24L562.567,3291.99L562.797,3291.74L563.026,3291.49L563.253,3291.24L563.478,3290.99L563.702,3290.74L563.923,3290.48L564.144,3290.23L564.364,3289.97L564.582,3289.71L564.798,3289.45L565.013,3289.19L565.225,3288.92L565.437,3288.66L565.647,3288.39L565.856,3288.13L566.063,3287.86L566.268,3287.59L566.471,3287.32L566.674,3287.05L566.874,3286.77L567.073,3286.5L567.27,3286.22L567.466,3285.95L567.66,3285.67L567.853,3285.39L568.043,3285.11L568.232,3284.83L568.42,3284.55L568.606,3284.26L568.79,3283.97L568.972,3283.69L569.153,3283.4L569.332,3283.11L569.509,3282.82L569.685,3282.53L569.859,3282.24L570.031,3281.95L570.202,3281.65L570.371,3281.36L570.538,3281.06L570.703,3280.76L570.866,3280.46L571.028,3280.16L571.188,3279.86L571.346,3279.56L571.503,3279.26L571.658,3278.95L571.81,3278.65L571.962,3278.34L572.111,3278.03L572.258,3277.73L572.404,3277.42L572.548,3277.11L572.69,3276.8L572.83,3276.48L572.968,3276.17L573.104,3275.86L573.239,3275.54L573.372,3275.22L573.502,3274.91L573.632,3274.59L573.759,3274.27L573.883,3273.95L574.007,3273.63L574.128,3273.31L574.248,3272.99L574.365,3272.66L574.481,3272.34L574.594,3272.01L574.706,3271.69L574.816,3271.36L574.924,3271.03L575.029,3270.7L575.133,3270.37L575.235,3270.04L575.335,3269.71L575.433,3269.38L575.529,3269.04L575.623,3268.71L575.715,3268.37L575.805,3268.04L575.892,3267.7L575.978,3267.36L576.062,3267.02L576.144,3266.68L576.223,3266.35L576.301,3266.01L576.376,3265.66L576.45,3265.32L576.521,3264.98L576.591,3264.63L576.658,3264.29L576.723,3263.94L576.786,3263.6L576.847,3263.25L576.906,3262.9L576.962,3262.56L577.017,3262.21L577.069,3261.86L577.119,3261.51L577.168,3261.15L577.214,3260.8L577.257,3260.45L577.299,3260.1L577.338,3259.74L577.375,3259.39L577.41,3259.03L577.443,3258.68L577.474,3258.32L577.502,3257.96L577.528,3257.61L577.552,3257.25L577.574,3256.89L577.593,3256.53L577.61,3256.17L577.625,3255.81L577.638,3255.44L577.648,3255.08L577.656,3254.72L577.662,3254.36L577.665,3253.99L577.667,3253.63L577.665,3253.26L577.662,3252.9L577.656,3252.53L577.648,3252.17L577.638,3251.81L577.625,3251.45L577.61,3251.09L577.593,3250.73L577.574,3250.37L577.552,3250.01L577.528,3249.65L577.502,3249.29L577.474,3248.93L577.443,3248.58L577.41,3248.22L577.375,3247.87L577.338,3247.51L577.299,3247.16L577.257,3246.8L577.214,3246.45L577.168,3246.1L577.119,3245.75L577.069,3245.4L577.017,3245.05L576.962,3244.7L576.906,3244.35L576.847,3244L576.786,3243.66L576.723,3243.31L576.658,3242.96L576.591,3242.62L576.521,3242.28L576.45,3241.93L576.376,3241.59L576.301,3241.25L576.223,3240.91L576.144,3240.57L576.062,3240.23L575.978,3239.89L575.892,3239.55L575.805,3239.22L575.715,3238.88L575.623,3238.55L575.529,3238.21L575.433,3237.88L575.335,3237.55L575.235,3237.21L575.133,3236.88L575.03,3236.55L574.924,3236.22L574.816,3235.89L574.706,3235.57L574.594,3235.24L574.481,3234.92L574.365,3234.59L574.248,3234.27L574.128,3233.95L574.007,3233.62L573.883,3233.3L573.759,3232.98L573.632,3232.66L573.502,3232.34L573.372,3232.03L573.239,3231.71L573.105,3231.4L572.968,3231.08L572.83,3230.77L572.69,3230.46L572.548,3230.14L572.404,3229.83L572.258,3229.53L572.111,3229.22L571.962,3228.91L571.81,3228.6L571.657,3228.3L571.503,3227.99L571.346,3227.69L571.188,3227.39L571.028,3227.09L570.866,3226.79L570.703,3226.49L570.538,3226.19L570.371,3225.9L570.202,3225.6L570.031,3225.31L569.859,3225.01L569.685,3224.72L569.509,3224.43L569.332,3224.14L569.153,3223.85L568.972,3223.56L568.789,3223.28L568.606,3222.99L568.42,3222.71L568.233,3222.43L568.043,3222.14L567.852,3221.86L567.66,3221.58L567.466,3221.31L567.27,3221.03L567.073,3220.75L566.874,3220.48L566.674,3220.21L566.472,3219.93L566.268,3219.66L566.062,3219.39L565.856,3219.13L565.647,3218.86L565.437,3218.59L565.226,3218.33L565.012,3218.07L564.797,3217.81L564.582,3217.55L564.364,3217.29L564.144,3217.03L563.924,3216.77L563.702,3216.52L563.478,3216.26L563.253,3216.01L563.026,3215.76L562.797,3215.51L562.567,3215.26L562.336,3215.01L562.104,3214.77L561.869,3214.53L561.633,3214.28L561.397,3214.04L561.159,3213.8L560.919,3213.56L560.678,3213.33L560.435,3213.09L560.191,3212.86L559.945,3212.62L559.698,3212.39L559.45,3212.16L559.201,3211.93L558.95,3211.71L558.697,3211.48L558.443,3211.26L558.189,3211.04L557.932,3210.82L557.674,3210.6L557.415,3210.38L557.154,3210.16L556.893,3209.95L556.63,3209.74L556.366,3209.52L556.1,3209.31L555.833,3209.1L555.566,3208.9L555.296,3208.69L555.025,3208.49L554.754,3208.29L554.48,3208.09L554.206,3207.89L553.931,3207.69L553.654,3207.49L553.375,3207.3L553.096,3207.11L552.816,3206.92L552.534,3206.73L552.251,3206.54L551.967,3206.35L551.682,3206.17L551.396,3205.99L551.108,3205.81L550.82,3205.63L550.53,3205.45L550.238,3205.28L549.946,3205.1L549.654,3204.93L549.359,3204.76L549.063,3204.59L548.767,3204.42L548.47,3204.26L548.171,3204.09L547.87,3203.93L547.569,3203.77L547.268,3203.61L546.966,3203.46L546.661,3203.3L546.355,3203.15L546.049,3203L545.743,3202.85L545.435,3202.7L545.126,3202.56L544.815,3202.41L544.503,3202.27L544.192,3202.13L543.878,3201.99L543.563,3201.86L543.248,3201.72L542.933,3201.59L542.615,3201.46L542.297,3201.33L541.977,3201.2L541.658,3201.08L541.337,3200.95L541.015,3200.83L540.692,3200.71L540.369,3200.6L540.045,3200.48L539.718,3200.37L539.391,3200.25L539.064,3200.14L538.737,3200.04L538.407,3199.93L538.077,3199.83L537.746,3199.72L537.415,3199.63L537.083,3199.53L536.749,3199.43L536.415,3199.34L536.08,3199.24L535.743,3199.16L535.407,3199.07L535.069,3198.98L534.731,3198.9L534.392,3198.82L534.052,3198.74L533.711,3198.66L533.37,3198.58L533.028,3198.51L532.684,3198.44L532.34,3198.37L531.996,3198.3L531.65,3198.24L531.303,3198.17L530.958,3198.11L530.61,3198.05L530.262,3198L529.913,3197.94L529.563,3197.89L529.212,3197.84L528.861,3197.79L528.51,3197.75L528.156,3197.7L527.803,3197.66L527.449,3197.62L527.095,3197.59L526.739,3197.55L526.383,3197.52L526.026,3197.49L525.67,3197.46L525.312,3197.43L524.953,3197.41L524.594,3197.39L524.235,3197.37L523.873,3197.35L523.513,3197.34L523.151,3197.32L522.788,3197.31L522.426,3197.3L522.063,3197.3L521.698,3197.29L521.333,3197.29L520.968,3197.29Z" style="fill:white;"/>
            </g>
            <g transform="matrix(0.143598,0,0,0.143598,1364.24,3108.14)">
                <path d="M415.16,211.696C399.35,211.696 390.978,211.696 373.599,211.696L353.772,198.525C353.891,198.474 354.031,198.437 354.143,198.381C357.536,196.686 359.851,193.706 360.823,190.328L361.468,191.843C362.186,193.529 363.824,194.54 365.547,194.54C366.127,194.54 366.715,194.426 367.282,194.184C369.533,193.225 370.582,190.622 369.622,188.37L369.071,187.074C375.918,195.13 386.12,200.247 397.522,200.247C408.924,200.247 419.126,195.13 425.973,187.074L425.422,188.37C424.462,190.622 425.511,193.225 427.762,194.184C428.33,194.426 428.918,194.54 429.497,194.54C431.22,194.54 432.858,193.529 433.576,191.843L434.221,190.328C434.487,191.25 434.845,192.143 435.308,192.988L415.16,211.696ZM507.994,145.969C502.358,139.896 492.863,139.546 486.791,145.183L456.447,173.36C455.956,173.095 455.479,172.845 455.031,172.621C450.857,170.535 446.045,169.978 441.655,172.875L442.256,171.465C443.216,169.213 442.167,166.61 439.916,165.651C437.985,164.829 435.807,165.488 434.617,167.108C434.771,165.73 434.858,164.332 434.858,162.913C434.858,142.293 418.143,125.577 397.523,125.577C376.904,125.577 360.189,142.292 360.189,162.913C360.189,164.332 360.276,165.73 360.429,167.108C359.239,165.488 357.061,164.829 355.131,165.651C352.879,166.61 351.831,169.213 352.79,171.465L353.391,172.875C349.002,169.977 344.188,170.534 340.014,172.619C336.845,174.202 332.56,176.737 327.992,181.399L276.387,147.119C269.484,142.534 260.173,144.414 255.588,151.315C251.004,158.217 252.882,167.528 259.784,172.113C366.79,243.195 360.815,239.248 361.554,239.676C357.944,269.185 362.368,243.944 337.998,369.762C337.525,372.205 338.168,374.731 339.751,376.65C341.334,378.571 343.692,379.691 346.18,379.691C348.372,379.691 350.863,379.691 353.593,379.691L335.38,472.526C333.203,483.619 341.686,493.999 353.065,493.999C361.497,493.999 369.028,488.045 370.712,479.459L390.286,379.691C396.278,379.691 402.361,379.691 408.308,379.691L423.062,478.647C424.394,487.581 432.077,493.998 440.846,493.998C451.909,493.998 460.292,484.178 458.675,473.337L444.711,379.691C446.184,379.691 447.582,379.691 448.863,379.691C451.353,379.691 453.713,378.577 455.295,376.656C456.879,374.734 457.519,372.206 457.045,369.761C432.679,243.954 437.227,270.233 433.044,236.036L471.245,200.565C472.797,200.889 474.357,201.28 475.916,201.792C476.808,202.084 477.787,201.815 478.405,201.109C479.022,200.402 479.156,199.395 478.745,198.551C478.176,197.381 477.599,196.274 477.018,195.205L507.208,167.171C513.279,161.534 513.632,152.041 507.994,145.969Z" style="fill:white;fill-rule:nonzero;"/>
                <path d="M237.762,95.29C231.059,90.305 221.583,91.696 216.597,98.401L138.486,203.423C134.301,203.423 102.542,203.423 98.114,203.423L26.814,116.649C21.51,110.197 11.979,109.262 5.523,114.565C-0.93,119.868 -1.863,129.401 3.439,135.856L78.865,227.65L78.865,328.088L35.614,470.571C32.702,480.164 38.119,490.3 47.71,493.212C57.325,496.128 67.446,490.69 70.352,481.116L110.647,348.379L124.706,348.379L137.789,477.671C138.797,487.644 147.701,494.912 157.675,493.902C167.648,492.894 174.916,483.989 173.906,474.016C158.15,318.299 159.244,328.73 158.988,327.374L158.988,226.55L240.872,116.454C245.858,109.75 244.466,100.275 237.762,95.29Z" style="fill:white;fill-rule:nonzero;"/>
                <path d="M295.194,0.259C318.751,0.259 337.848,19.356 337.848,42.914C337.848,66.471 318.751,85.568 295.194,85.568C271.637,85.568 252.54,66.471 252.54,42.914C252.54,19.356 271.637,0.259 295.194,0.259Z" style="fill:white;fill-rule:nonzero;"/>
                <g transform="matrix(0.864631,0,0,0.864631,-139.036,115.517)">
                    <path d="M295.194,0.259C318.751,0.259 337.848,19.356 337.848,42.914C337.848,66.471 318.751,85.568 295.194,85.568C271.637,85.568 252.54,66.471 252.54,42.914C252.54,19.356 271.637,0.259 295.194,0.259Z" style="fill:white;fill-rule:nonzero;"/>
                </g>
            </g>
        </g>
    </g>
</svg>
