<?xml version="1.0" encoding="UTF-8" standalone="no"?>
<!DOCTYPE svg PUBLIC "-//W3C//DTD SVG 1.1//EN" "http://www.w3.org/Graphics/SVG/1.1/DTD/svg11.dtd">
<svg width="100%" height="100%" viewBox="0 0 41 40" version="1.1" xmlns="http://www.w3.org/2000/svg" xmlns:xlink="http://www.w3.org/1999/xlink" xml:space="preserve" xmlns:serif="http://www.serif.com/" style="fill-rule:evenodd;clip-rule:evenodd;stroke-linejoin:round;stroke-miterlimit:1.41421;">
    <g transform="matrix(1,0,0,1,-390.672,-3781.18)">
        <g transform="matrix(-1,0,0,1,1099.99,1210.39)">
            <g transform="matrix(0.967742,0,0,0.967742,311.893,1442.39)">
                <ellipse cx="389.672" cy="1186.68" rx="21" ry="20.667" style="fill:rgb(184,214,239);fill-opacity:0.707143;"/>
            </g>
            <g transform="matrix(1,0,0,1,300.656,1411.61)">
                <path d="M382.945,1171.08L390.884,1179.01L389.979,1179.92L382.611,1187.29L384.733,1189.41L393.99,1180.15L394.066,1180.08L394.219,1179.9L394.342,1179.69L394.432,1179.48L394.487,1179.25L394.505,1179.01L394.487,1178.78L394.432,1178.55L394.342,1178.33L394.219,1178.13L394.066,1177.95L385.066,1168.95L382.945,1171.08Z" style="fill:rgb(82,99,121);"/>
            </g>
        </g>
    </g>
</svg>
