<?xml version="1.0" encoding="UTF-8" standalone="no"?>
<!DOCTYPE svg PUBLIC "-//W3C//DTD SVG 1.1//EN" "http://www.w3.org/Graphics/SVG/1.1/DTD/svg11.dtd">
<svg width="100%" height="100%" viewBox="0 0 20 20" version="1.1" xmlns="http://www.w3.org/2000/svg" xmlns:xlink="http://www.w3.org/1999/xlink" xml:space="preserve" xmlns:serif="http://www.serif.com/" style="fill-rule:evenodd;clip-rule:evenodd;stroke-linejoin:round;stroke-miterlimit:1.41421;">
    <g transform="matrix(1,0,0,1,-1509.28,-19.7748)">
        <g transform="matrix(0.0778075,0,0,0.0778075,1424.78,-102.654)">
            <path d="M1317.45,1573.48C1331.63,1573.48 1343.15,1585 1343.15,1599.18L1343.15,1804.82C1343.15,1819 1331.63,1830.52 1317.45,1830.52L1111.81,1830.52C1097.62,1830.52 1086.11,1819 1086.11,1804.82L1086.11,1599.18C1086.11,1585 1097.62,1573.48 1111.81,1573.48L1317.45,1573.48ZM1320.41,1753.07C1320.15,1752.49 1319.91,1752.01 1319.69,1751.62C1315.98,1744.69 1308.88,1736.17 1298.42,1726.08L1298.2,1725.84L1298.09,1725.73L1297.98,1725.61L1297.87,1725.61C1293.12,1720.91 1290.11,1717.75 1288.85,1716.13C1286.55,1713.05 1286.03,1709.92 1287.29,1706.77C1288.18,1704.37 1291.52,1699.33 1297.31,1691.62C1300.35,1687.54 1302.77,1684.26 1304.54,1681.79C1317.38,1664.06 1322.95,1652.73 1321.24,1647.8L1320.58,1646.65C1320.13,1645.96 1318.99,1645.32 1317.13,1644.74C1315.28,1644.16 1312.9,1644.06 1310.01,1644.45L1277.94,1644.68C1277.42,1644.5 1276.68,1644.51 1275.72,1644.74C1274.75,1644.97 1274.26,1645.09 1274.26,1645.09L1273.71,1645.38L1273.27,1645.73C1272.89,1645.96 1272.49,1646.36 1272.04,1646.94C1271.6,1647.52 1271.23,1648.19 1270.93,1648.96C1267.44,1658.29 1263.47,1666.96 1259.02,1674.97C1256.27,1679.76 1253.74,1683.9 1251.44,1687.4C1249.14,1690.91 1247.21,1693.5 1245.66,1695.15C1244.1,1696.81 1242.69,1698.14 1241.43,1699.14C1240.16,1700.14 1239.2,1700.56 1238.53,1700.41C1237.86,1700.25 1237.23,1700.1 1236.64,1699.95C1235.6,1699.26 1234.76,1698.31 1234.13,1697.11C1233.5,1695.92 1233.08,1694.42 1232.85,1692.6C1232.63,1690.79 1232.5,1689.23 1232.46,1687.92C1232.43,1686.62 1232.45,1684.76 1232.52,1682.38C1232.59,1679.98 1232.63,1678.36 1232.63,1677.52C1232.63,1674.59 1232.69,1671.41 1232.8,1667.98C1232.91,1664.55 1233,1661.83 1233.08,1659.83C1233.15,1657.83 1233.19,1655.7 1233.19,1653.47C1233.19,1651.24 1233.05,1649.48 1232.8,1648.21C1232.54,1646.94 1232.15,1645.71 1231.63,1644.51C1231.11,1643.32 1230.35,1642.39 1229.34,1641.74C1228.34,1641.08 1227.1,1640.56 1225.62,1640.17C1221.68,1639.25 1216.67,1638.75 1210.59,1638.67C1196.78,1638.51 1187.92,1639.44 1183.98,1641.45C1182.42,1642.29 1181.01,1643.45 1179.75,1644.91C1178.42,1646.61 1178.23,1647.54 1179.19,1647.69C1183.65,1648.38 1186.8,1650.04 1188.66,1652.66L1189.32,1654.05C1189.84,1655.05 1190.37,1656.82 1190.88,1659.36C1191.4,1661.91 1191.73,1664.72 1191.88,1667.8C1192.25,1673.43 1192.25,1678.25 1191.88,1682.26C1191.51,1686.26 1191.16,1689.39 1190.83,1691.62C1190.49,1693.86 1189.99,1695.66 1189.32,1697.06C1188.66,1698.44 1188.21,1699.29 1187.98,1699.6C1187.76,1699.91 1187.58,1700.1 1187.43,1700.17C1186.46,1700.56 1185.46,1700.76 1184.42,1700.76C1183.39,1700.76 1182.12,1700.22 1180.64,1699.14C1179.15,1698.06 1177.62,1696.57 1176.02,1694.68C1174.43,1692.8 1172.62,1690.16 1170.62,1686.76C1168.61,1683.37 1166.54,1679.37 1164.38,1674.74L1162.6,1671.39C1161.49,1669.23 1159.97,1666.09 1158.04,1661.96C1156.11,1657.84 1154.4,1653.86 1152.92,1650C1152.33,1648.38 1151.43,1647.15 1150.24,1646.3L1149.69,1645.95C1149.32,1645.64 1148.72,1645.32 1147.91,1644.97C1147.09,1644.62 1146.24,1644.37 1145.35,1644.22L1114.84,1644.44C1111.73,1644.44 1109.61,1645.18 1108.5,1646.64L1108.05,1647.34C1107.83,1647.72 1107.72,1648.34 1107.72,1649.18C1107.72,1650.04 1107.94,1651.08 1108.38,1652.31C1112.84,1663.17 1117.68,1673.66 1122.91,1683.75C1128.15,1693.86 1132.69,1701.99 1136.55,1708.15C1140.41,1714.32 1144.34,1720.14 1148.35,1725.61C1152.36,1731.08 1155.02,1734.59 1156.31,1736.13C1157.61,1737.68 1158.63,1738.83 1159.37,1739.6L1162.15,1742.37C1163.94,1744.22 1166.55,1746.44 1170.01,1749.02C1173.46,1751.6 1177.28,1754.15 1181.47,1756.65C1185.67,1759.15 1190.55,1761.2 1196.12,1762.78C1201.68,1764.36 1207.1,1765 1212.37,1764.68L1225.17,1764.68C1227.77,1764.45 1229.74,1763.6 1231.07,1762.14L1231.51,1761.57C1231.81,1761.1 1232.09,1760.39 1232.35,1759.42C1232.61,1758.46 1232.74,1757.4 1232.74,1756.25C1232.67,1752.93 1232.91,1749.95 1233.46,1747.29C1234.01,1744.63 1234.65,1742.63 1235.36,1741.28C1236.06,1739.93 1236.86,1738.79 1237.75,1737.87C1238.64,1736.94 1239.27,1736.39 1239.65,1736.19C1240.01,1736 1240.31,1735.87 1240.53,1735.78C1242.32,1735.17 1244.41,1735.77 1246.83,1737.58C1249.24,1739.39 1251.5,1741.62 1253.62,1744.29C1255.73,1746.95 1258.28,1749.93 1261.24,1753.25C1264.21,1756.56 1266.81,1759.02 1269.03,1760.64L1271.26,1762.03C1272.75,1762.96 1274.67,1763.8 1277.05,1764.57C1279.43,1765.35 1281.5,1765.54 1283.28,1765.16L1311.79,1764.69C1314.6,1764.69 1316.8,1764.21 1318.35,1763.24C1319.91,1762.28 1320.84,1761.22 1321.13,1760.07C1321.43,1758.91 1321.45,1757.6 1321.19,1756.13C1320.93,1754.67 1320.67,1753.65 1320.41,1753.07Z" style="fill:rgb(95,174,230);fill-opacity:0.75;"/>
        </g>
    </g>
</svg>
