<?xml version="1.0" encoding="UTF-8" standalone="no"?>
<!DOCTYPE svg PUBLIC "-//W3C//DTD SVG 1.1//EN" "http://www.w3.org/Graphics/SVG/1.1/DTD/svg11.dtd">
<svg width="100%" height="100%" viewBox="0 0 10 10" version="1.1" xmlns="http://www.w3.org/2000/svg" xmlns:xlink="http://www.w3.org/1999/xlink" xml:space="preserve" xmlns:serif="http://www.serif.com/" style="fill-rule:evenodd;clip-rule:evenodd;stroke-linejoin:round;stroke-miterlimit:1.41421;">
    <g transform="matrix(1,0,0,1,-822.743,-89)">
        <g transform="matrix(1,0,0,1,0,10.5733)">
            <g transform="matrix(0.769231,0,0,0.769231,296.787,20.4062)">
                <path d="M696.743,88.427L683.743,88.427L683.743,75.427L696.743,75.427L696.743,88.427ZM685.043,76.727L685.043,87.127L695.443,87.127L695.443,76.727L685.043,76.727Z" style="fill:rgb(82,99,121);"/>
            </g>
            <g transform="matrix(0.461538,0,0,0.461538,509.169,45.6144)">
                <path d="M696.743,88.427L683.743,88.427L683.743,75.427L696.743,75.427L696.743,88.427ZM685.91,77.593L685.91,86.26L694.577,86.26L694.577,77.593L685.91,77.593Z" style="fill:rgb(82,99,121);"/>
            </g>
        </g>
    </g>
</svg>
