<?xml version="1.0" encoding="UTF-8" standalone="no"?>
<!DOCTYPE svg PUBLIC "-//W3C//DTD SVG 1.1//EN" "http://www.w3.org/Graphics/SVG/1.1/DTD/svg11.dtd">
<svg width="100%" height="100%" viewBox="0 0 20 20" version="1.1" xmlns="http://www.w3.org/2000/svg" xmlns:xlink="http://www.w3.org/1999/xlink" xml:space="preserve" xmlns:serif="http://www.serif.com/" style="fill-rule:evenodd;clip-rule:evenodd;stroke-linejoin:round;stroke-miterlimit:1.41421;">
    <g transform="matrix(1,0,0,1,-1463.74,-19.7748)">
        <g transform="matrix(0.0778075,0,0,0.0778075,1379.23,-102.654)">
            <path d="M1317.45,1573.48C1331.63,1573.48 1343.15,1585 1343.15,1599.18L1343.15,1804.82C1343.15,1819 1331.63,1830.52 1317.45,1830.52L1111.81,1830.52C1097.62,1830.52 1086.11,1819 1086.11,1804.82L1086.11,1599.18C1086.11,1585 1097.62,1573.48 1111.81,1573.48L1317.45,1573.48ZM1214.63,1648.85C1244.05,1648.85 1267.94,1672.67 1267.94,1702C1267.94,1731.33 1244.05,1755.15 1214.63,1755.15C1185.21,1755.15 1161.32,1731.33 1161.32,1702C1161.32,1672.67 1185.21,1648.85 1214.63,1648.85ZM1284.93,1615.01C1294.31,1615.01 1301.92,1622.6 1301.92,1631.95C1301.92,1641.3 1294.31,1648.89 1284.93,1648.89C1275.55,1648.89 1267.94,1641.3 1267.94,1631.95C1267.94,1622.6 1275.55,1615.01 1284.93,1615.01Z" style="fill:rgb(95,174,230);fill-opacity:0.75;"/>
        </g>
    </g>
</svg>
