<?xml version="1.0" encoding="UTF-8" standalone="no"?>
<!DOCTYPE svg PUBLIC "-//W3C//DTD SVG 1.1//EN" "http://www.w3.org/Graphics/SVG/1.1/DTD/svg11.dtd">
<svg width="100%" height="100%" viewBox="0 0 16 16" version="1.1" xmlns="http://www.w3.org/2000/svg" xmlns:xlink="http://www.w3.org/1999/xlink" xml:space="preserve" xmlns:serif="http://www.serif.com/" style="fill-rule:evenodd;clip-rule:evenodd;stroke-linejoin:round;stroke-miterlimit:1.41421;">
    <g transform="matrix(1,0,0,1,-1222,-20.9812)">
        <g transform="matrix(0.0342229,0,0,0.0342229,1222,20.9532)">
            <path d="M462.266,365.572C463.242,373.075 460.957,379.607 455.41,385.154L390.293,449.779C387.355,453.044 383.52,455.818 378.789,458.103C374.055,460.388 369.402,461.857 364.836,462.509C364.508,462.509 363.527,462.591 361.895,462.755C360.266,462.919 358.145,463.001 355.531,463.001C349.332,463.001 339.293,461.939 325.422,459.818C311.547,457.697 294.574,452.474 274.504,444.15C254.43,435.825 231.664,423.341 206.203,406.697C180.746,390.052 153.652,367.2 124.93,338.154C102.082,315.63 83.152,294.087 68.137,273.525C53.121,252.962 41.047,233.95 31.906,216.486C22.766,199.025 15.91,183.193 11.344,168.993C6.773,154.798 3.672,142.556 2.039,132.275C0.406,121.993 -0.246,113.915 0.081,108.04C0.406,102.165 0.57,98.9 0.57,98.247C1.223,93.677 2.691,89.029 4.977,84.294C7.262,79.56 10.035,75.728 13.301,72.79L78.418,7.673C82.988,3.103 88.211,0.818 94.086,0.818C98.328,0.818 102.082,2.04 105.344,4.489C108.609,6.939 111.383,9.958 113.668,13.548L166.055,112.935C168.992,118.157 169.809,123.872 168.504,130.072C167.199,136.275 164.426,141.497 160.18,145.739L136.191,169.728C135.539,170.384 134.965,171.443 134.477,172.911C133.988,174.38 133.742,175.607 133.742,176.583C135.047,183.439 137.984,191.271 142.555,200.083C146.473,207.919 152.512,217.466 160.672,228.728C168.832,239.986 180.418,252.962 195.434,267.65C210.121,282.665 223.176,294.333 234.602,302.657C246.023,310.978 255.57,317.099 263.242,321.017C270.91,324.931 276.789,327.298 280.867,328.114L286.984,329.337C287.637,329.337 288.699,329.091 290.168,328.603C291.637,328.114 292.699,327.544 293.352,326.888L321.258,298.493C327.137,293.271 333.988,290.657 341.82,290.657C347.371,290.657 351.777,291.638 355.039,293.595L355.531,293.595L450.023,349.411C456.879,353.657 460.957,359.04 462.266,365.572Z" style="fill:rgb(95,174,230);fill-opacity:0.8;fill-rule:nonzero;"/>
        </g>
    </g>
</svg>
